<svg id="Layer_2" data-name="Layer 2" xmlns="http://www.w3.org/2000/svg" viewBox="0 0 1366 768"><defs><style>.cls-1{fill:none;stroke:#91b5c4;stroke-miterlimit:10;}</style></defs><line class="cls-1" x1="902.2" y1="49.93" x2="920.2" y2="49.93"/><line class="cls-1" x1="911.2" y1="67.43" x2="911.2" y2="49.93"/><polyline class="cls-1" points="1299 49.68 1317 49.68 1317 67.68"/><polyline class="cls-1" points="49.91 67.68 49.91 49.68 67.91 49.68"/><line class="cls-1" x1="1316.77" y1="375.46" x2="1316.77" y2="393.46"/><line class="cls-1" x1="1307" y1="384.46" x2="1316.79" y2="384.46"/><path class="cls-1" d="M1317,391.28a6.82,6.82,0,1,1,0-13.64"/><line class="cls-1" x1="911.2" y1="393.21" x2="911.2" y2="375.71"/><line class="cls-1" x1="50.14" y1="393.46" x2="50.14" y2="375.46"/><line class="cls-1" x1="59.91" y1="384.46" x2="50.12" y2="384.46"/><path class="cls-1" d="M49.91,377.64a6.82,6.82,0,0,1,0,13.64"/><line class="cls-1" x1="1316.41" y1="226.11" x2="1316.41" y2="208.61"/><line class="cls-1" x1="1325.16" y1="217.36" x2="1307.66" y2="217.36"/><polyline class="cls-1" points="437.32 49.8 455.32 49.8 455.32 67.8"/><polyline class="cls-1" points="67.56 269.38 49.56 269.38 49.56 251.38"/><line class="cls-1" x1="455.49" y1="277.98" x2="455.49" y2="260.48"/><line class="cls-1" x1="464.24" y1="269.23" x2="446.74" y2="269.23"/><line class="cls-1" x1="455.2" y1="393.21" x2="455.2" y2="375.71"/><line class="cls-1" x1="463.52" y1="717.73" x2="445.52" y2="717.73"/><line class="cls-1" x1="454.52" y1="700.23" x2="454.52" y2="717.73"/><polyline class="cls-1" points="66.72 717.98 48.72 717.98 48.72 699.98"/><polyline class="cls-1" points="1315.81 699.98 1315.81 717.98 1297.81 717.98"/><line class="cls-1" x1="49.31" y1="541.55" x2="49.31" y2="559.05"/><line class="cls-1" x1="40.56" y1="550.3" x2="58.06" y2="550.3"/><polyline class="cls-1" points="928.4 717.86 910.4 717.86 910.4 699.86"/><polyline class="cls-1" points="1298.16 498.28 1316.16 498.28 1316.16 516.28"/><line class="cls-1" x1="910.23" y1="489.68" x2="910.23" y2="507.18"/><line class="cls-1" x1="901.48" y1="498.43" x2="918.98" y2="498.43"/></svg>